<?xml version="1.0" standalone="no"?>
<!DOCTYPE svg PUBLIC "-//W3C//DTD SVG 20010904//EN"
 "http://www.w3.org/TR/2001/REC-SVG-20010904/DTD/svg10.dtd">
<svg version="1.0" xmlns="http://www.w3.org/2000/svg"
 width="1149.000000pt" height="1149.000000pt" viewBox="0 0 1149.000000 1149.000000"
 preserveAspectRatio="xMidYMid meet">
<metadata>
Created by potrace 1.14, written by Peter Selinger 2001-2017
</metadata>
<g transform="translate(0.000000,1149.000000) scale(0.100000,-0.100000)"
fill="#000000" stroke="none">
<path d="M5525 9101 c-77 -53 -192 -132 -255 -176 -63 -43 -221 -151 -350
-240 -327 -225 -1041 -716 -1180 -811 -268 -183 -655 -449 -863 -592 -122 -85
-265 -183 -317 -218 -52 -36 -153 -105 -225 -154 -71 -49 -181 -124 -242 -166
-108 -74 -149 -107 -80 -66 17 10 61 36 97 57 36 21 76 46 90 55 14 9 32 19
40 23 8 4 36 20 61 35 25 15 178 105 340 200 162 96 301 178 309 183 14 8 688
405 771 453 20 12 159 93 308 181 149 88 285 168 302 178 29 17 345 202 709
417 91 53 271 159 400 235 129 76 239 138 245 138 5 0 159 -85 340 -190 497
-287 1646 -948 1701 -979 27 -15 65 -37 84 -49 19 -12 42 -25 50 -28 8 -4 29
-15 45 -26 32 -19 854 -493 1290 -743 143 -82 256 -145 250 -140 -5 5 -163
112 -350 237 -187 126 -454 305 -593 399 -139 94 -260 176 -270 181 -9 6 -39
26 -67 45 -27 19 -58 40 -68 45 -9 6 -151 100 -315 211 -163 110 -484 326
-712 479 -228 153 -509 342 -625 420 -504 340 -755 505 -767 504 -7 0 -76 -44
-153 -98z"/>
<path d="M5794 8170 c-39 -26 -78 -59 -87 -73 -8 -13 -41 -34 -74 -47 -55 -23
-184 -87 -323 -162 -36 -20 -101 -55 -145 -78 -99 -53 -116 -64 -185 -115 -30
-23 -75 -53 -100 -67 -25 -14 -65 -46 -90 -70 -25 -24 -83 -74 -130 -112 -47
-38 -100 -85 -119 -104 -65 -65 -143 -86 -231 -62 -25 7 -54 14 -65 16 -11 2
-31 6 -45 9 -99 21 -234 -3 -319 -55 -27 -17 -55 -30 -63 -30 -8 0 -36 -11
-62 -25 -32 -17 -63 -25 -97 -25 -61 0 -102 -17 -153 -65 -22 -20 -60 -48 -85
-62 -25 -15 -57 -36 -71 -48 -14 -12 -46 -32 -72 -45 -26 -14 -45 -26 -43 -28
2 -2 18 4 37 13 l33 17 -34 -35 c-20 -22 -30 -40 -26 -48 5 -7 4 -10 -2 -6 -6
4 -19 -1 -30 -11 -10 -9 -14 -14 -9 -9 6 4 16 7 24 7 11 0 12 -3 3 -14 -6 -8
-10 -20 -9 -27 2 -8 -3 -13 -10 -11 -8 1 -11 -2 -7 -8 4 -6 3 -17 -2 -23 -4
-7 5 2 20 20 30 34 61 47 36 16 -13 -16 -12 -17 4 -4 9 8 15 16 12 19 -3 3 3
15 12 26 13 14 7 12 -19 -7 -21 -16 -38 -24 -38 -18 0 11 58 61 71 61 23 0 0
-57 -43 -106 -18 -21 -18 -21 9 -18 15 1 30 3 33 4 3 1 7 2 10 2 3 0 6 8 6 19
0 19 -1 18 -18 -3 l-19 -23 12 27 c12 27 41 47 36 25 -1 -7 4 -11 11 -9 9 2 5
-9 -9 -30 -13 -17 -18 -28 -11 -24 15 9 15 1 1 -27 -12 -21 -11 -21 8 -4 11 9
23 14 28 10 4 -5 5 -2 1 4 -4 7 2 22 13 35 12 12 21 27 22 32 0 6 7 -2 14 -19
9 -19 14 -24 15 -12 0 9 5 17 11 17 5 0 7 4 4 10 -3 5 1 20 9 32 9 12 16 18
16 12 0 -5 -5 -15 -12 -22 -7 -7 -8 -12 -2 -12 6 0 16 12 22 26 7 14 17 22 22
19 6 -3 10 -3 10 2 0 4 28 38 63 74 62 65 113 106 123 97 2 -3 -2 -35 -11 -71
-35 -149 -38 -310 -9 -428 16 -64 24 -168 25 -314 0 -22 0 -67 1 -100 2 -179
-2 -276 -15 -332 -8 -34 -12 -84 -9 -110 7 -75 7 -83 -17 -175 -17 -67 -20
-92 -11 -108 6 -11 16 -20 23 -20 8 0 7 -4 -2 -9 -9 -6 -22 -6 -34 1 -14 7
-17 7 -13 -1 12 -19 -22 -12 -34 7 -11 16 -11 16 -6 0 8 -26 -18 -22 -38 5
-16 22 -16 22 -6 -5 9 -27 -3 -41 -13 -15 -4 10 -6 10 -6 0 -1 -18 -21 -16
-42 3 -16 15 -17 14 -12 -4 4 -18 0 -21 -29 -20 -18 1 -36 6 -40 12 -5 7 -8 4
-8 -8 0 -17 -1 -17 -25 -2 -18 12 -23 13 -19 2 6 -16 -43 -29 -52 -14 -4 7 -9
6 -13 0 -3 -6 -89 -22 -191 -36 -232 -33 -244 -35 -305 -46 -27 -5 -66 -12
-85 -14 -36 -6 -76 -13 -120 -21 -14 -3 -43 -8 -65 -11 -22 -3 -58 -10 -80
-14 -22 -4 1449 -8 3269 -9 1820 -1 3307 1 3305 3 -2 2 -22 7 -44 10 -22 3
-62 11 -90 16 -27 5 -66 12 -85 15 -19 3 -42 8 -50 10 -8 2 -37 6 -65 10 -27
3 -77 10 -110 15 -33 5 -76 12 -95 15 -19 3 -66 10 -105 16 -38 5 -81 11 -95
13 -14 2 -29 4 -34 4 -5 1 -2 10 5 20 12 15 12 15 -7 -1 -15 -12 -30 -16 -47
-12 -24 6 -24 8 -10 36 22 43 9 46 -17 5 -12 -20 -26 -36 -31 -36 -5 0 -3 10
5 23 8 12 17 38 21 57 5 30 3 28 -20 -19 -14 -30 -28 -51 -31 -48 -3 3 -1 14
5 25 19 36 12 38 -10 5 -30 -47 -39 -40 -24 18 16 58 8 57 -16 -3 -19 -48 -32
-53 -39 -13 l-6 30 -7 -27 c-4 -16 -12 -28 -17 -28 -6 0 -6 10 0 28 l10 27
-21 -27 c-29 -39 -41 -35 -23 8 21 51 12 52 -15 1 -21 -38 -22 -39 -18 -12 5
30 5 30 -10 8 -24 -36 -44 -30 -31 8 6 16 8 32 5 35 -3 3 -8 -5 -12 -18 -4
-13 -12 -28 -17 -35 -12 -15 -40 -5 -31 11 3 6 -3 2 -15 -8 -26 -22 -28 -12
-7 38 20 48 12 46 -16 -4 -29 -52 -42 -51 -23 2 18 52 12 60 -10 14 -17 -36
-36 -55 -36 -37 0 5 5 13 10 16 6 3 10 12 10 18 0 7 -10 0 -21 -15 -30 -41
-39 -34 -23 17 7 25 11 45 9 45 -2 0 -13 -20 -24 -45 -22 -51 -41 -58 -42 -17
0 26 -1 26 -9 5 -5 -13 -14 -23 -20 -23 -13 0 -13 1 6 45 22 53 13 52 -15 -1
-13 -24 -28 -44 -32 -44 -12 0 -12 2 6 43 24 59 17 66 -11 12 -29 -54 -42 -72
-29 -40 18 47 16 59 -4 28 -29 -47 -41 -41 -25 12 7 25 11 45 9 45 -2 0 -13
-20 -25 -45 -25 -51 -40 -58 -40 -17 l0 27 -13 -24 c-6 -14 -22 -25 -34 -26
l-22 -2 20 38 c30 59 22 68 -12 15 -16 -27 -32 -46 -34 -44 -3 2 4 28 15 56
11 29 18 52 15 52 -3 0 -18 -26 -34 -57 -32 -63 -40 -65 -16 -5 12 31 12 34 0
17 -37 -53 -44 -60 -49 -54 -4 3 1 23 9 44 9 20 14 40 11 42 -3 3 -10 -7 -16
-22 -6 -15 -14 -25 -17 -21 -14 14 -11 41 9 80 13 26 22 65 23 106 2 37 13 94
25 129 19 58 20 67 7 111 -8 26 -13 65 -12 86 8 108 19 174 40 224 55 133 77
287 54 390 -22 101 -91 206 -179 271 -45 34 -127 75 -165 83 -79 17 -71 16
-337 31 -125 7 -130 10 -144 77 -6 32 -15 129 -18 213 -3 70 -3 70 37 111 35
36 41 49 44 96 3 51 2 55 -28 77 -28 21 -31 27 -25 62 4 26 1 49 -9 69 -23 44
-18 71 20 119 42 52 47 78 13 60 -13 -7 -36 -22 -53 -35 -37 -28 -54 -31 -186
-39 l-105 -5 -70 45 c-38 25 -70 41 -72 36 -5 -15 23 -62 66 -112 44 -50 46
-67 16 -155 -25 -74 -42 -197 -43 -304 -1 -58 -3 -125 -5 -150 -2 -25 -7 -85
-11 -135 -3 -49 -9 -108 -12 -130 -3 -22 -6 -67 -8 -100 -2 -33 -6 -80 -10
-105 -13 -83 -12 -272 1 -344 27 -141 82 -256 136 -285 37 -19 102 -174 95
-225 -3 -22 0 -39 8 -46 7 -6 18 -24 25 -40 7 -17 19 -30 26 -30 18 0 28 -43
19 -88 -3 -20 -8 -46 -9 -57 -9 -73 -27 -103 -54 -87 -7 5 -2 25 15 60 31 66
25 79 -7 17 -13 -26 -28 -49 -33 -52 -6 -4 -7 -1 -2 6 8 15 35 111 30 111 -2
0 -18 -32 -36 -70 -18 -39 -34 -68 -36 -66 -3 2 2 17 10 33 8 15 17 42 21 58
5 27 4 26 -14 -10 -33 -63 -39 -62 -34 6 l4 64 -18 -60 c-10 -33 -23 -69 -30
-80 -10 -19 -11 -19 -10 5 3 46 -2 80 -11 80 -5 0 -9 -6 -8 -12 2 -49 -5 -79
-18 -85 -23 -8 -25 -2 -16 39 12 53 0 56 -21 6 l-18 -43 4 46 c3 25 0 52 -5
60 -6 10 -9 5 -9 -18 0 -34 -19 -47 -21 -15 0 9 -5 1 -11 -18 -14 -51 -30 -63
-25 -20 2 19 0 46 -4 60 l-7 25 -2 -27 c-1 -16 -4 -32 -5 -38 -1 -5 -3 -22 -4
-37 -1 -22 -3 -25 -11 -13 -5 8 -10 25 -10 37 0 34 -17 36 -18 3 -1 -35 -10
-53 -22 -45 -5 3 -2 24 6 47 24 69 15 76 -17 13 -16 -33 -26 -51 -23 -40 4 11
8 45 10 75 2 30 1 46 -2 35 -14 -54 -36 -115 -44 -120 -4 -2 -2 12 6 33 24 68
14 78 -16 17 -17 -33 -28 -52 -26 -43 3 10 8 41 10 70 l6 53 -25 -70 -24 -70
0 47 c-1 26 -6 50 -11 53 -6 4 -9 3 -8 -2 1 -4 -1 -27 -5 -50 -6 -35 -11 -43
-28 -43 -18 0 -20 4 -14 28 28 103 21 129 -10 35 -18 -59 -31 -71 -20 -20 10
48 13 99 5 90 -4 -4 -13 -30 -20 -58 -7 -27 -17 -57 -22 -65 -8 -12 -8 -11 -4
3 3 10 8 37 11 60 l6 42 -18 -42 c-24 -55 -37 -66 -28 -23 8 40 8 36 5 75 -2
28 -3 28 -11 -10 -11 -46 -17 -76 -18 -89 -2 -22 -15 8 -18 41 -4 54 -10 50
-18 -12 -6 -50 -9 -55 -31 -55 -29 0 -29 1 -3 51 28 56 17 60 -15 5 -14 -25
-31 -48 -37 -52 -6 -3 -4 4 4 17 9 13 18 42 22 64 l6 40 -21 -44 c-11 -24 -23
-41 -26 -38 -3 3 -1 16 6 29 l11 23 -18 -23 c-10 -13 -28 -35 -40 -50 l-23
-27 15 37 c28 70 17 87 -14 23 l-29 -60 0 45 c1 52 41 111 90 131 42 17 55 52
62 160 6 88 29 219 56 309 14 47 12 121 -3 140 -7 9 -41 38 -75 65 -35 27 -70
61 -78 76 -7 15 -33 45 -56 68 l-43 40 0 254 0 253 -37 75 c-29 59 -38 89 -39
135 -3 97 -2 100 44 127 23 14 57 45 75 71 36 50 81 86 107 86 18 0 48 -28
125 -120 56 -66 98 -123 98 -133 1 -36 19 -71 45 -91 34 -25 107 -50 107 -36
0 4 9 6 19 3 26 -7 109 76 139 138 l23 47 -20 73 c-11 41 -23 88 -26 104 -3
17 -7 44 -10 60 -20 110 -22 137 -18 196 3 47 0 77 -12 105 -19 46 -12 87 19
111 12 10 34 35 50 55 26 35 27 38 10 45 -10 4 -44 -3 -78 -15 l-61 -21 -42
25 c-47 27 -49 31 -29 59 7 11 17 36 22 55 7 33 8 45 5 70 -2 21 -38 7 -107
-40z m-1679 -1691 c119 -53 154 -139 122 -294 -7 -32 22 -95 81 -174 68 -92
189 -321 170 -321 -25 0 -48 -24 -62 -65 -12 -34 -12 -45 0 -75 15 -35 16
-110 2 -132 -5 -9 -8 -6 -8 9 0 27 -10 53 -20 53 -4 0 -6 -16 -3 -35 4 -27 1
-35 -11 -35 -12 0 -15 7 -12 25 7 37 -11 40 -18 3 -7 -36 -13 -34 -20 6 -8 45
-16 43 -16 -4 0 -46 -8 -51 -12 -7 -2 29 -18 26 -18 -3 0 -21 -20 -39 -20 -18
-1 7 -7 27 -15 43 l-14 30 0 -30 c2 -46 0 -55 -10 -55 -5 0 -12 9 -16 19 -3
11 -12 22 -21 25 -12 4 -12 2 -4 -14 12 -22 5 -43 -13 -37 -5 1 -11 10 -13 18
-1 7 -7 25 -13 39 -10 23 -10 23 -9 -12 1 -21 -1 -40 -5 -44 -4 -4 -7 1 -7 12
0 10 -9 30 -20 44 l-19 25 10 -38 c13 -47 6 -60 -9 -18 -14 39 -22 40 -16 1 7
-41 -12 -38 -26 5 -6 19 -16 35 -20 35 -5 0 -8 -6 -6 -12 3 -7 7 -26 10 -43
l6 -30 -25 30 -26 30 7 -27 c9 -38 -9 -35 -29 5 -17 31 -17 31 -14 5 2 -15 0
-33 -4 -40 -7 -10 -9 -9 -9 3 0 9 -9 27 -20 40 l-20 24 10 -28 c15 -42 11 -57
-5 -19 -18 40 -23 41 -17 2 3 -18 0 -30 -7 -30 -6 0 -11 5 -11 11 0 6 -10 23
-22 37 -15 20 -19 22 -13 7 4 -11 10 -31 12 -45 5 -23 4 -24 -11 -9 -11 10
-18 35 -20 70 -1 30 -9 65 -16 79 -10 19 -13 81 -12 255 1 242 1 240 26 325 9
30 16 62 16 73 0 28 94 218 126 256 23 27 85 69 105 71 4 0 28 -10 54 -21z
m916 -111 c27 -18 49 -36 49 -41 0 -8 37 -24 73 -31 55 -11 349 -146 362 -166
2 -3 -6 -51 -19 -106 -13 -54 -29 -136 -36 -182 -10 -61 -20 -90 -38 -109 -21
-23 -28 -25 -78 -19 -45 5 -57 3 -73 -13 -23 -23 -55 -123 -48 -153 9 -39 -15
-101 -41 -104 -23 -4 -28 5 -13 21 9 11 32 75 26 75 -2 0 -16 -19 -30 -42 -24
-39 -26 -36 -10 21 3 11 2 22 -3 25 -6 3 -13 -10 -16 -28 -4 -19 -16 -45 -27
-58 l-21 -23 16 25 c9 13 16 36 15 50 l0 25 -10 -23 c-5 -13 -16 -33 -25 -45
-15 -21 -15 -21 -12 13 3 19 2 46 -1 59 -5 18 -10 9 -20 -40 l-14 -64 -16 45
-16 45 -3 -42 c-2 -33 -7 -43 -21 -43 -14 0 -16 7 -13 36 5 45 -12 39 -24 -8
l-8 -33 -4 40 c-5 56 -18 64 -20 13 -1 -23 -5 -45 -10 -50 -4 -4 -7 8 -6 27 2
42 -11 38 -20 -6 -7 -39 -14 -35 -18 10 -3 40 -18 52 -19 17 -3 -59 -13 -68
-27 -27 -14 40 -26 40 -17 1 5 -23 3 -30 -8 -30 -11 0 -13 9 -7 43 5 23 7 44
4 46 -4 4 -24 -45 -24 -58 0 -5 -8 -15 -17 -22 -10 -9 -14 -9 -10 -2 12 19 17
94 6 88 -5 -4 -9 -14 -9 -23 -1 -9 -7 -30 -14 -47 -14 -30 -14 -30 -10 15 l4
45 -17 -45 -18 -45 -3 53 c-2 29 -7 50 -11 47 -5 -2 -8 41 -6 98 1 87 6 113
33 183 18 47 33 107 36 145 3 40 17 97 36 145 41 102 66 178 75 232 4 24 17
52 28 63 33 30 105 20 168 -23z m-446 -178 c0 -147 -8 -222 -31 -289 -13 -38
-145 161 -159 238 -11 63 -8 119 10 167 9 27 18 54 20 59 2 8 27 8 81 0 l79
-11 0 -164z m2020 -199 c15 -50 -19 -221 -45 -221 -5 0 -10 1 -10 3 0 1 -3 45
-6 98 -7 103 2 139 36 139 10 0 21 -9 25 -19z m367 -146 c24 -43 22 -118 -7
-199 -22 -62 -58 -117 -74 -114 -3 1 -22 -7 -42 -16 -28 -14 -40 -28 -48 -57
-7 -22 -18 -39 -26 -39 -19 0 -19 0 10 51 38 68 29 80 -11 16 -41 -65 -54 -71
-25 -11 37 78 31 87 -10 17 -24 -40 -44 -71 -46 -69 -2 2 5 19 16 37 10 19 22
45 25 59 6 22 5 22 -10 -5 -23 -40 -70 -96 -59 -70 4 11 31 88 59 170 28 83
61 166 72 185 31 50 40 83 43 159 1 22 5 20 59 -30 31 -29 65 -67 74 -84z
m209 -92 c11 -28 14 -208 5 -251 -7 -30 -48 -102 -58 -102 -5 0 -2 12 5 28 8
15 17 41 21 57 4 21 -3 13 -24 -27 -17 -32 -33 -58 -35 -58 -3 0 2 14 10 31
23 44 12 47 -15 4 -12 -20 -24 -34 -27 -32 -2 3 2 28 11 56 8 28 13 51 11 51
-2 0 -16 -25 -30 -55 -30 -60 -44 -65 -38 -13 l4 33 -16 -36 c-13 -29 -21 -36
-36 -32 -18 5 -19 7 -4 30 10 14 14 33 10 46 -5 16 -4 18 3 8 8 -11 11 -9 17
8 3 11 10 21 15 21 5 0 7 9 5 20 -2 11 12 39 35 68 22 27 49 71 60 98 35 81
53 93 71 47z m-1934 -289 l-15 -29 1 43 c1 36 3 40 15 28 12 -12 12 -18 -1
-42z m167 29 c-8 -33 -29 -59 -37 -46 -6 9 28 73 38 73 3 0 2 -12 -1 -27z
m-930 -28 c-14 -46 -22 -47 -25 -3 -4 41 -2 44 13 34 12 -7 16 -18 12 -31z
m2047 18 c-12 -20 -14 -14 -5 12 4 9 9 14 11 11 3 -2 0 -13 -6 -23z m-421 -30
c-11 -17 -11 -17 -6 0 3 10 6 24 7 30 0 9 2 9 5 0 3 -7 0 -20 -6 -30z m-1610
-20 c-11 -17 -11 -17 -6 0 3 10 7 26 7 35 1 15 2 15 6 0 2 -10 -1 -25 -7 -35z
m782 25 c-7 -7 -12 -8 -12 -2 0 14 12 26 19 19 2 -3 -1 -11 -7 -17z m71 7 c-3
-9 -8 -14 -10 -11 -3 3 -2 9 2 15 9 16 15 13 8 -4z m158 -8 c-10 -9 -11 -8 -5
6 3 10 9 15 12 12 3 -3 0 -11 -7 -18z m-974 -24 c-3 -10 -5 -4 -5 12 0 17 2
24 5 18 2 -7 2 -21 0 -30z m2013 17 c-6 -11 -13 -20 -16 -20 -2 0 0 9 6 20 6
11 13 20 16 20 2 0 0 -9 -6 -20z m288 -5 c-13 -29 -28 -34 -23 -7 2 9 4 20 4
25 1 4 8 7 16 7 12 0 13 -4 3 -25z m52 19 c0 -3 -9 -17 -20 -31 -23 -29 -25
-25 -8 12 10 22 28 35 28 19z m54 -24 c-10 -16 -20 -27 -22 -25 -5 5 26 55 34
55 3 0 -3 -13 -12 -30z m-40 -5 c-9 -14 -18 -25 -21 -25 -5 0 5 18 20 38 17
22 18 13 1 -13z m-3094 -65 c0 -5 -5 -10 -11 -10 -5 0 -7 5 -4 10 3 6 8 10 11
10 2 0 4 -4 4 -10z"/>
<path d="M3391 6764 c0 -11 3 -14 6 -6 3 7 2 16 -1 19 -3 4 -6 -2 -5 -13z"/>
<path d="M3255 6729 c-4 -6 -5 -12 -2 -15 2 -3 7 2 10 11 7 17 1 20 -8 4z"/>
<path d="M8185 5319 c-4 -6 -5 -12 -2 -15 2 -3 7 2 10 11 7 17 1 20 -8 4z"/>
<path d="M1505 4904 c-195 -33 -319 -103 -369 -209 -27 -56 -32 -151 -12 -213
36 -108 135 -183 395 -298 216 -95 291 -159 291 -249 0 -121 -151 -194 -330
-161 -90 17 -190 106 -222 196 -12 36 -31 38 -108 10 -156 -56 -143 -189 25
-273 127 -63 358 -96 520 -73 231 33 390 139 429 287 18 68 12 158 -13 208
-58 112 -133 164 -436 300 -121 55 -162 79 -201 117 -45 45 -54 69 -43 122 18
83 127 130 263 111 100 -13 185 -66 259 -160 24 -31 27 -32 53 -20 47 21 101
69 114 101 16 38 1 79 -41 114 -30 26 -117 62 -171 71 -17 3 -34 7 -37 9 -11
7 -137 19 -216 20 -44 1 -111 -4 -150 -10z"/>
<path d="M5565 4913 c-64 -10 -134 -28 -173 -44 l-44 -19 -37 22 c-32 20 -48
23 -141 22 -58 0 -116 -3 -130 -7 -14 -3 -30 -6 -37 -6 -7 -1 -5 -16 7 -48 35
-92 45 -198 45 -453 -1 -135 -4 -306 -9 -380 -17 -288 -5 -317 137 -346 60
-13 335 -12 422 1 291 42 465 127 578 283 33 45 84 160 93 207 32 176 24 314
-23 435 -56 143 -172 250 -324 299 -38 12 -46 14 -119 26 -47 8 -210 13 -245
8z m87 -148 c173 -38 289 -229 283 -465 -3 -99 -8 -131 -36 -214 -62 -184
-194 -303 -351 -314 -144 -10 -151 3 -147 277 1 108 3 309 3 448 l1 251 60 14
c61 15 127 16 187 3z"/>
<path d="M3345 4900 c-113 -23 -348 -28 -785 -15 -252 7 -275 4 -316 -40 -30
-32 -45 -145 -20 -145 6 0 29 5 51 10 84 19 104 21 238 26 l137 4 1 -67 c3
-209 2 -349 -6 -528 -13 -330 -12 -385 11 -423 31 -54 97 -75 232 -74 120 1
126 4 117 60 -4 26 -10 58 -13 72 -3 14 -6 232 -8 485 l-2 460 178 0 c164 0
180 2 200 20 34 30 50 69 50 120 0 49 1 48 -65 35z"/>
<path d="M3926 4889 c-337 -72 -524 -327 -512 -694 3 -64 11 -133 21 -165 56
-184 183 -307 374 -364 86 -25 137 -31 281 -30 245 2 394 55 531 189 115 113
174 277 173 485 -1 136 -14 199 -62 300 -63 133 -188 230 -357 276 -95 26
-337 28 -449 3z m307 -139 c132 -62 199 -220 197 -465 0 -127 -1 -142 -15
-215 -34 -187 -139 -298 -291 -308 -175 -11 -285 90 -329 303 -17 84 -22 253
-10 345 11 86 52 201 90 252 36 49 104 95 152 104 15 3 29 7 31 8 11 12 136
-6 175 -24z"/>
<path d="M7008 4900 c-161 -27 -296 -95 -399 -204 -63 -65 -130 -205 -144
-297 -4 -24 -9 -47 -11 -51 -10 -16 -5 -218 6 -274 46 -212 192 -360 412 -415
90 -23 286 -31 404 -16 142 17 279 82 372 175 88 87 147 199 168 317 3 22 8
49 11 60 5 29 4 205 -2 240 -43 240 -182 390 -416 449 -75 19 -119 24 -224 24
-71 -1 -151 -4 -177 -8z m267 -154 c126 -62 185 -197 190 -436 8 -360 -106
-550 -329 -550 -71 0 -118 15 -168 53 -106 81 -159 247 -153 482 6 237 62 371
186 448 70 42 189 44 274 3z"/>
<path d="M8090 4890 c-24 -4 -34 -10 -31 -20 20 -85 29 -207 30 -409 l1 -236
-80 -48 c-92 -55 -105 -72 -85 -110 50 -96 60 -104 112 -82 19 8 36 15 38 15
1 0 2 -51 2 -112 -1 -121 8 -152 55 -194 12 -12 43 -26 68 -31 25 -4 203 -8
395 -7 386 1 400 3 424 62 12 29 22 120 14 134 -2 4 -22 0 -45 -8 -137 -48
-466 -67 -522 -30 -41 26 -43 43 -37 343 l1 62 94 56 c112 67 117 79 69 153
-37 58 -59 65 -108 32 -16 -11 -33 -20 -38 -20 -4 0 -6 57 -4 128 6 223 -21
281 -152 318 -32 9 -156 11 -201 4z"/>
<path d="M9645 4896 c-5 -3 -31 -7 -57 -11 l-47 -6 29 -45 c28 -45 28 -45 10
-82 -9 -20 -24 -53 -33 -72 -8 -19 -38 -84 -66 -144 -28 -59 -51 -110 -51
-113 0 -12 -196 -392 -249 -483 -99 -169 -108 -230 -40 -266 34 -17 146 -26
207 -17 31 5 33 7 26 37 -16 70 0 157 54 293 l36 93 210 -2 209 -3 51 -135
c59 -156 74 -185 113 -221 47 -43 113 -62 222 -63 53 -1 113 3 133 7 l37 8
-43 72 c-23 40 -52 92 -63 117 -12 25 -41 88 -66 140 -52 112 -161 381 -247
609 -33 90 -67 175 -74 189 -19 36 -54 68 -91 82 -30 12 -191 23 -210 16z
m115 -496 c39 -100 69 -184 67 -187 -2 -2 -72 -2 -155 -1 l-150 3 63 150 c34
83 70 168 79 189 9 22 18 37 21 34 3 -2 37 -87 75 -188z"/>
<path d="M8705 3556 c-18 -18 -23 -32 -20 -56 6 -43 26 -64 76 -79 53 -16 82
-7 73 22 -4 12 -8 38 -10 57 -1 19 -3 38 -3 42 -1 4 -8 14 -17 22 -23 24 -71
20 -99 -8z"/>
<path d="M4998 3482 c-27 -3 -28 -4 -25 -70 l2 -67 -37 0 c-38 1 -44 -6 -38
-45 3 -20 4 -21 42 -29 l33 -7 0 -178 0 -178 33 -29 c39 -35 102 -42 164 -18
27 11 36 25 44 67 4 19 1 23 -18 22 -50 -4 -67 1 -75 23 -12 32 -10 297 2 298
6 0 29 0 53 -1 38 -1 42 1 42 22 0 38 -16 52 -59 52 l-41 1 0 45 c0 76 -35
102 -122 92z"/>
<path d="M2924 3350 c-44 -10 -86 -37 -111 -72 l-21 -31 -13 41 c-13 46 -44
64 -94 58 -16 -3 -38 -5 -48 -5 -13 -1 -17 -6 -13 -18 15 -50 19 -102 17 -254
-1 -199 3 -208 86 -214 30 -3 55 0 59 6 3 6 5 68 5 138 -2 99 2 138 15 170 29
74 92 103 134 61 18 -18 19 -30 15 -166 -4 -156 5 -202 43 -205 107 -9 124 -5
117 30 -3 14 -7 106 -10 205 -5 189 -9 210 -58 240 -28 17 -83 25 -123 16z"/>
<path d="M3421 3344 c-113 -30 -179 -97 -209 -214 -12 -47 -9 -136 6 -181 38
-111 196 -140 291 -52 l25 22 18 -29 c9 -16 29 -32 43 -36 27 -7 102 0 113 10
3 4 -3 23 -13 44 -16 31 -20 62 -21 183 -2 81 1 163 6 183 9 40 3 48 -51 65
-55 18 -149 20 -208 5z m114 -150 c1 -122 -18 -199 -59 -236 -20 -19 -62 -23
-83 -10 -35 22 -49 134 -28 217 18 71 86 120 145 105 24 -6 25 -10 25 -76z"/>
<path d="M4250 3350 c-126 -17 -212 -128 -216 -280 -4 -115 44 -195 131 -219
117 -32 262 47 223 122 -8 16 -11 15 -36 -8 -34 -31 -89 -33 -125 -5 -60 47
-56 227 7 279 24 20 69 20 104 0 18 -10 37 -19 42 -19 13 0 28 54 20 75 -14
37 -86 64 -150 55z"/>
<path d="M7298 3355 c-2 -2 -19 -4 -38 -6 -40 -3 -82 -29 -122 -74 l-28 -30 0
26 c0 15 -9 37 -19 50 -16 20 -28 24 -75 23 -31 0 -58 -3 -62 -6 -3 -3 0 -24
6 -47 6 -23 10 -117 10 -217 -1 -164 0 -178 18 -197 28 -28 153 -32 136 -5 -4
5 -6 65 -6 133 0 111 2 129 23 172 27 54 63 79 100 70 41 -10 48 -41 44 -201
-3 -124 -1 -149 13 -166 32 -39 163 -32 147 8 -4 9 -9 94 -11 187 -5 178 -12
221 -44 250 -17 15 -84 37 -92 30z"/>
<path d="M7710 3346 c-49 -13 -110 -53 -133 -89 -22 -34 -43 -108 -46 -158 -6
-107 45 -195 137 -237 89 -40 209 -23 283 40 64 56 97 194 69 292 -34 121
-170 188 -310 152z m122 -96 c32 -25 46 -78 43 -171 -2 -68 -20 -129 -43 -143
-19 -12 -65 -14 -87 -4 -70 32 -81 266 -15 320 29 24 71 23 102 -2z"/>
<path d="M8344 3349 c-100 -18 -176 -77 -218 -168 -29 -65 -29 -210 0 -261 24
-42 93 -80 145 -80 44 0 116 24 142 48 19 17 20 16 14 -45 -10 -102 -47 -151
-119 -157 -42 -4 -106 18 -136 47 l-24 22 -19 -24 c-54 -67 20 -131 150 -131
146 1 235 59 278 182 11 33 15 100 16 293 l1 249 -45 13 c-56 17 -132 22 -185
12z m87 -141 c2 -181 -12 -241 -63 -263 -74 -31 -113 12 -113 125 0 125 51
199 138 200 l37 0 1 -62z"/>
<path d="M4472 3339 c-26 -10 -33 -22 -34 -59 -1 -39 3 -43 37 -30 35 13 172
22 179 12 7 -11 -53 -108 -120 -195 -29 -37 -65 -92 -80 -122 -27 -52 -28 -55
-12 -72 15 -15 41 -17 199 -18 198 -1 214 3 221 55 7 45 -1 50 -57 35 -54 -14
-185 -19 -185 -8 0 4 47 77 104 163 173 256 175 245 -53 246 -98 0 -188 -3
-199 -7z"/>
<path d="M5410 3328 c-101 -50 -158 -166 -144 -296 14 -132 86 -193 221 -186
120 6 204 69 171 128 -8 14 -13 13 -44 -11 -42 -31 -105 -36 -146 -9 -28 19
-58 72 -58 104 0 18 6 21 53 20 138 -3 219 56 210 152 -9 103 -148 155 -263
98z m120 -58 c17 0 31 -41 25 -71 -8 -36 -49 -59 -105 -59 -40 0 -41 1 -37 28
11 66 58 119 95 106 8 -2 18 -4 22 -4z"/>
<path d="M5757 3342 c-13 -3 -16 -10 -11 -30 3 -15 7 -117 8 -226 3 -244 3
-244 142 -227 9 1 9 13 2 44 -5 23 -8 81 -5 129 4 71 9 95 31 132 15 25 35 50
46 56 25 13 73 13 87 -1 9 -9 14 -2 19 27 10 47 7 64 -13 87 -35 38 -105 2
-144 -74 -11 -22 -20 -39 -22 -39 -1 0 -3 19 -4 42 -4 54 -30 81 -80 83 -21 1
-46 0 -56 -3z"/>
<path d="M6136 3343 c-18 -5 -18 -5 -1 -85 7 -31 15 -104 20 -173 3 -38 8 -83
11 -100 10 -47 46 -106 76 -121 35 -18 99 -18 144 1 l36 15 -7 -33 c-16 -74
-58 -132 -106 -144 -54 -13 -121 -4 -161 22 -44 29 -54 27 -63 -16 -9 -39 15
-76 60 -95 45 -19 140 -18 198 2 59 20 135 88 170 151 63 116 123 454 95 533
-12 35 -28 42 -96 45 l-52 3 2 -87 c4 -189 -21 -299 -72 -312 -61 -15 -81 24
-86 171 -6 157 -12 187 -38 208 -23 18 -90 26 -130 15z"/>
<path d="M8697 3343 c-16 -4 -17 -11 -11 -46 5 -23 7 -123 6 -222 -2 -211 0
-215 78 -220 69 -5 82 1 74 34 -4 14 -8 107 -9 206 -4 229 -2 212 -25 235 -19
19 -67 25 -113 13z"/>
</g>
</svg>
